<svg width="1280" height="832" viewBox="0 0 1280 832" fill="none" xmlns="http://www.w3.org/2000/svg">
<g clip-path="url(#clip0_29_4)">
<rect width="1280" height="832" fill="white"/>
<rect x="45" y="-244" width="1440" height="1024" fill="white"/>
<path d="M1609.25 290.25C1532.76 366.741 1429.69 410.741 1321.54 413.071C1213.39 415.4 1108.52 375.879 1028.8 302.753C949.09 229.627 900.692 128.545 893.708 20.597C886.723 -87.3513 921.692 -193.827 991.317 -276.616C1060.94 -359.404 1159.85 -412.11 1267.39 -423.737C1374.94 -435.363 1482.82 -405.013 1568.53 -339.017C1654.24 -273.021 1711.16 -176.478 1727.41 -69.531C1743.65 37.416 1717.98 146.506 1655.73 234.978L1641.24 224.783C1700.86 140.046 1725.45 35.5618 1709.89 -66.8697C1694.33 -169.301 1639.82 -261.768 1557.72 -324.977C1475.63 -388.187 1372.31 -417.256 1269.3 -406.12C1166.29 -394.985 1071.56 -344.504 1004.88 -265.211C938.192 -185.918 904.7 -83.9377 911.39 19.4529C918.08 122.844 964.434 219.658 1040.78 289.696C1117.13 359.735 1217.57 397.587 1321.16 395.356C1424.74 393.124 1523.46 350.982 1596.72 277.721L1609.25 290.25Z" fill="#D7D7D7" fill-opacity="0.3"/>
<path d="M1567.62 -268.964C1635.28 -203.203 1674.92 -113.858 1678.29 -19.5711C1681.66 74.716 1648.49 166.663 1585.71 237.085C1522.92 307.507 1435.37 350.964 1341.31 358.39C1247.26 365.817 1153.97 336.638 1080.91 276.942C1007.85 217.246 960.659 131.644 949.189 37.9967C937.719 -55.6508 962.854 -150.11 1019.35 -225.674C1075.84 -301.237 1159.33 -352.067 1252.4 -367.558C1345.47 -383.05 1440.92 -362.006 1518.85 -308.818L1510.13 -296.054C1435.5 -346.996 1344.07 -367.151 1254.94 -352.314C1165.8 -337.476 1085.83 -288.793 1031.73 -216.42C977.617 -144.047 953.543 -53.5756 964.529 36.118C975.514 125.812 1020.71 207.799 1090.68 264.975C1160.66 322.15 1250.01 350.097 1340.09 342.984C1430.18 335.872 1514.04 294.249 1574.17 226.8C1634.31 159.351 1666.08 71.287 1662.85 -19.0192C1659.62 -109.325 1621.65 -194.898 1556.85 -257.882L1567.62 -268.964Z" fill="#D7D7D7" fill-opacity="0.3"/>
<path d="M1013.33 -86.6628C1033.99 -163.778 1083.63 -229.935 1151.9 -271.333C1220.16 -312.73 1301.77 -326.169 1379.71 -308.846C1457.64 -291.523 1525.87 -244.776 1570.17 -178.359C1614.47 -111.941 1631.41 -30.9831 1617.46 47.6237C1603.51 126.231 1559.74 196.414 1495.3 243.532C1430.85 290.649 1350.69 311.061 1271.56 300.508C1192.42 289.955 1120.42 249.252 1070.57 186.892C1020.72 124.533 996.879 45.3326 1004.01 -34.183L1017.04 -33.0142C1010.21 43.1442 1033.04 119 1080.79 178.727C1128.53 238.454 1197.49 277.438 1273.29 287.545C1349.08 297.653 1425.85 278.103 1487.58 232.975C1549.31 187.847 1591.22 120.626 1604.58 45.3385C1617.95 -29.9494 1601.72 -107.489 1559.29 -171.102C1516.86 -234.716 1451.51 -279.489 1376.87 -296.081C1302.23 -312.672 1224.06 -299.801 1158.68 -260.151C1093.3 -220.502 1045.75 -157.137 1025.96 -83.2782L1013.33 -86.6628Z" fill="#D7D7D7" fill-opacity="0.3"/>
<path d="M1312.5 -253.125C1376.07 -253.125 1437.19 -228.578 1483.09 -184.606C1529 -140.633 1556.16 -80.6317 1558.9 -17.1203C1561.63 46.3911 1539.74 108.507 1497.79 156.266C1455.83 204.026 1397.06 233.741 1333.72 239.21C1270.39 244.68 1207.39 225.483 1157.86 185.623C1108.34 145.764 1076.12 88.3219 1067.93 25.2815C1059.74 -37.7588 1076.21 -101.528 1113.9 -152.72C1151.59 -203.913 1207.59 -238.574 1270.22 -249.474L1272 -239.215C1212.02 -228.776 1158.38 -195.578 1122.28 -146.547C1086.18 -97.5155 1070.41 -36.439 1078.26 23.9396C1086.1 84.3183 1116.96 139.335 1164.39 177.512C1211.82 215.688 1272.16 234.075 1332.83 228.836C1393.49 223.597 1449.78 195.137 1489.96 149.394C1530.15 103.651 1551.12 44.158 1548.49 -16.6719C1545.87 -77.5018 1519.86 -134.97 1475.89 -177.086C1431.92 -219.202 1373.39 -242.712 1312.5 -242.712L1312.5 -253.125Z" fill="#D7D7D7" fill-opacity="0.3"/>
<path d="M272.25 980.25C227.722 1024.78 167.719 1050.39 104.761 1051.75C41.8035 1053.1 -19.2464 1030.1 -65.6508 987.529C-112.055 944.959 -140.23 886.115 -144.296 823.274C-148.362 760.433 -128.005 698.449 -87.4734 650.255C-46.9417 602.06 10.6344 571.378 73.2421 564.61C135.85 557.842 198.653 575.51 248.548 613.929C298.443 652.348 331.576 708.549 341.034 770.807C350.492 833.065 335.545 896.571 299.31 948.074L290.874 942.139C325.578 892.81 339.895 831.986 330.836 772.356C321.778 712.727 290.043 658.898 242.255 622.102C194.466 585.305 134.315 568.383 74.3507 574.865C14.3865 581.348 -40.7587 610.734 -79.5791 656.894C-118.399 703.054 -137.896 762.42 -134.002 822.608C-130.108 882.796 -103.123 939.155 -58.6779 979.928C-14.2328 1020.7 44.2395 1042.74 104.539 1041.44C164.839 1040.14 222.308 1015.6 264.956 972.956L272.25 980.25Z" fill="#D7D7D7" fill-opacity="0.3"/>
<path d="M248.018 654.709C287.401 692.991 310.481 745.003 312.443 799.891C314.404 854.779 295.095 908.305 258.545 949.3C221.994 990.296 171.025 1015.59 116.272 1019.92C61.5191 1024.24 7.21154 1007.25 -35.3198 972.503C-77.8512 937.752 -105.321 887.919 -111.998 833.403C-118.675 778.887 -104.043 723.899 -71.1553 679.91C-38.2676 635.922 10.3355 606.332 64.5134 597.314C118.691 588.295 174.259 600.546 219.623 631.509L214.551 638.939C171.103 609.284 117.881 597.551 65.9906 606.188C14.1002 614.825 -32.4508 643.166 -63.9499 685.297C-95.449 727.428 -109.463 780.095 -103.068 832.31C-96.6731 884.524 -70.3631 932.252 -29.6275 965.536C11.1081 998.82 63.1227 1015.09 115.564 1010.95C168.005 1006.81 216.822 982.578 251.829 943.313C286.837 904.049 305.331 852.783 303.452 800.212C301.573 747.641 279.468 697.826 241.747 661.16L248.018 654.709Z" fill="#D7D7D7" fill-opacity="0.3"/>
<path d="M-74.6595 760.834C-62.6309 715.942 -33.7323 677.429 6.00667 653.33C45.7456 629.231 93.2554 621.408 138.623 631.492C183.991 641.577 223.713 668.79 249.501 707.454C275.289 746.119 285.151 793.248 277.03 839.008C268.908 884.768 243.431 925.625 205.913 953.054C168.395 980.482 121.734 992.365 75.6667 986.221C29.5993 980.078 -12.3167 956.384 -41.3358 920.081C-70.3549 883.779 -84.2355 837.674 -80.0816 791.385L-72.4994 792.065C-76.4779 836.4 -63.1833 880.559 -35.3895 915.328C-7.59562 950.097 32.5506 972.792 76.673 978.676C120.795 984.56 165.486 973.179 201.42 946.908C237.354 920.637 261.755 881.505 269.534 837.677C277.313 793.849 267.867 748.71 243.168 711.678C218.469 674.647 180.424 648.582 136.972 638.924C93.5191 629.265 48.0152 636.758 9.95411 659.84C-28.107 682.921 -55.7854 719.808 -67.3062 762.804L-74.6595 760.834Z" fill="#D7D7D7" fill-opacity="0.3"/>
<path d="M99.5003 663.93C136.507 663.93 172.085 678.219 198.81 703.818C225.535 729.416 241.344 764.345 242.937 801.318C244.531 838.29 231.786 874.45 207.363 902.253C182.939 930.056 148.723 947.354 111.854 950.538C74.984 953.722 38.3088 942.546 9.4801 919.343C-19.3486 896.139 -38.1041 862.7 -42.873 826.001C-47.6419 789.303 -38.056 752.181 -16.1152 722.379C5.82554 692.578 38.4263 672.4 74.8852 666.055L75.9245 672.027C41.005 678.104 9.78063 697.43 -11.2338 725.973C-32.2481 754.516 -41.4293 790.071 -36.8618 825.22C-32.2942 860.369 -14.3306 892.397 13.2809 914.621C40.8924 936.845 76.0191 947.548 111.332 944.499C146.645 941.449 179.416 924.881 202.809 898.252C226.201 871.623 238.408 836.99 236.881 801.579C235.355 766.167 220.214 732.713 194.617 708.195C169.02 683.678 134.945 669.991 99.5003 669.991L99.5003 663.93Z" fill="#D7D7D7" fill-opacity="0.3"/>
</g>
<defs>
<clipPath id="clip0_29_4">
<rect width="1280" height="832" fill="white"/>
</clipPath>
</defs>
</svg>
